<?xml version="1.0" encoding="utf-8"?>
<!-- Generator: Adobe Illustrator 22.0.1, SVG Export Plug-In . SVG Version: 6.00 Build 0)  -->
<svg version="1.1" id="Capa_1" xmlns="http://www.w3.org/2000/svg" xmlns:xlink="http://www.w3.org/1999/xlink" x="0px" y="0px"
	 viewBox="0 0 54.8 54.8" style="enable-background:new 0 0 54.8 54.8;" xml:space="preserve">
<style type="text/css">
	.st0{fill:#FFFFFF;}
</style>
<path class="st0" d="M40.9,5.6C37.3,2,32.5,0,27.4,0c-5.1,0-9.9,2-13.6,5.6c-6.7,6.7-7.5,19.3-1.8,27l15.4,22.2l15.3-22.2
	C48.5,24.9,47.6,12.3,40.9,5.6z M41.1,31.4L27.4,51.2L13.6,31.4C8.4,24.5,9.2,13.1,15.2,7c3.2-3.2,7.6-5,12.1-5s8.9,1.8,12.1,5
	C45.6,13.1,46.3,24.5,41.1,31.4z"/>
<circle class="st0" cx="27.4" cy="12.5" r="4.5"/>
</svg>
