<svg id="Layer_1" data-name="Layer 1" xmlns="http://www.w3.org/2000/svg" viewBox="0 0 1600 800"><defs><style>.cls-1,.cls-2{fill:#000f9e;}.cls-1{fill-rule:evenodd;}</style></defs><title>SecureKey_VerifiedMe_Logo_RGB</title><path class="cls-1" d="M1035.12,185.44c-5.34-10.5-14.21-16.38-26.14-17-11.11-.62-19.79,4.08-26.85,12.34q-3,3.57-6.07,7.12h0l-13.22,15.51q-28.73,33.68-57.46,67.36c-8.18,9.57-16.37,19.19-24.79,29-8.33-7.17-16.35-14.08-24.48-20.95-10.2-8.66-20-17.76-30.71-25.58-9.46-6.89-20.42-6.94-30.76-1.66-10.51,5.39-16.34,14.35-17,26.23-.65,11.06,4.19,19.72,12.45,26.78q35.61,30.5,71.18,61.16c16.24,13.94,34.61,12.66,48.46-3.54q36-42.14,71.9-84.28h0l24-28.1c9.48-11.11,19.22-22,27.91-33.69C1040.43,206.71,1040.42,195.76,1035.12,185.44Z"/><path class="cls-2" d="M1025.18,255q-2.88,3.33-5.73,6.65l-12,14.06-12,14-1.17,1.38v72.09L876.69,431.16,759.07,363.25V227.44l117.62-67.91L943.4,198l.45-.52,5.09-6L962.18,176l1.57-1.85,3.75-4.38-90.81-52.43-154.15,89v178l154.15,89,154.14-89v-136C1028.94,250.59,1027.05,252.85,1025.18,255Z"/><path d="M82.91,476h40.46L179,615.13,234.84,476H275.3L192.93,679.74H165.28Z"/><path d="M379.5,657.33a66.31,66.31,0,0,1-25.76,18.77,82.17,82.17,0,0,1-32.14,6.55,80.3,80.3,0,0,1-29.25-5.24,67.68,67.68,0,0,1-39-38,77.18,77.18,0,0,1-5.68-30.13,81.68,81.68,0,0,1,4.8-28.08,71.94,71.94,0,0,1,13.83-23.43,65.13,65.13,0,0,1,50.06-22.12,61.5,61.5,0,0,1,26.78,5.82A67.54,67.54,0,0,1,364.24,557a70.84,70.84,0,0,1,13.83,22.85A78.59,78.59,0,0,1,383,607.83a58.92,58.92,0,0,1-.87,10.77h-97.8a38.87,38.87,0,0,0,4.08,13.68,35.16,35.16,0,0,0,8.29,10.48,38.85,38.85,0,0,0,11.65,6.84,39.5,39.5,0,0,0,14.11,2.47,41.53,41.53,0,0,0,21.4-5.38A58.7,58.7,0,0,0,358,635.77ZM344.28,591a29.74,29.74,0,0,0-2.76-9.17,28,28,0,0,0-5.82-8,27.56,27.56,0,0,0-8.59-5.53,28.13,28.13,0,0,0-10.77-2A29.41,29.41,0,0,0,296,573.86q-8.45,7.57-9.9,17.18Z"/><path d="M486.32,572.05a38.28,38.28,0,0,0-5.82-1,68.77,68.77,0,0,0-7.86-.44,33.51,33.51,0,0,0-11.65,2,47.09,47.09,0,0,0-10,5.09,43.89,43.89,0,0,0-7.71,6.55,35.28,35.28,0,0,0-4.95,6.7v88.77H400.45V538.58h36.39v14.26A44.37,44.37,0,0,1,454,540.32a59.62,59.62,0,0,1,23.87-4.65q4.06,0,6.84.29c1.84.19,3.82.48,6,.87Z"/><path d="M499.41,488.51a22.83,22.83,0,0,1,7.28-17.17,25.33,25.33,0,0,1,34.93,0,23.92,23.92,0,0,1,.53,33.82l-.53.53a25.33,25.33,0,0,1-34.93,0A22.85,22.85,0,0,1,499.41,488.51Zm43.66,191.23H505.23V538.58h37.84Z"/><path d="M676,502.22a53.3,53.3,0,0,0-5.62-1,45.11,45.11,0,0,0-5.92-.45q-14.49,0-21.59,8.29a27.38,27.38,0,0,0-3.85,8q-1.49,4.74-1.48,14.8v4.44h44.38v32.54H637.53v111H599.07v-111h-37V536.25h37v-5.92q0-17.46,3.84-28.4a46.39,46.39,0,0,1,11.54-18.35,61.85,61.85,0,0,1,18.79-12.13q11.1-4.72,25.89-4.73a105.71,105.71,0,0,1,11.39.59,86.36,86.36,0,0,1,11.39,2.07Z"/><path d="M699.66,485.36a23.21,23.21,0,0,1,7.4-17.46,25.73,25.73,0,0,1,35.5,0,24.29,24.29,0,0,1,.56,34.35c-.18.19-.37.38-.56.56a25.73,25.73,0,0,1-35.5,0A23.21,23.21,0,0,1,699.66,485.36ZM744,679.74H705.6V536.25h38.46Z"/><path d="M892.19,657.33A66.41,66.41,0,0,1,866.4,676.1a82.09,82.09,0,0,1-32.16,6.55A80.3,80.3,0,0,1,805,677.41a67.68,67.68,0,0,1-39-38,77.18,77.18,0,0,1-5.68-30.13,81.68,81.68,0,0,1,4.8-28.08,71.94,71.94,0,0,1,13.83-23.43A65.15,65.15,0,0,1,829,535.65a61.5,61.5,0,0,1,26.78,5.82A67.54,67.54,0,0,1,876.88,557a70.56,70.56,0,0,1,13.83,22.85,78.59,78.59,0,0,1,4.94,27.94,58.92,58.92,0,0,1-.87,10.77H797a38.87,38.87,0,0,0,4.08,13.68,35.19,35.19,0,0,0,8.3,10.48A38.8,38.8,0,0,0,821,649.6a39.5,39.5,0,0,0,14.11,2.47,41.53,41.53,0,0,0,21.4-5.38,58.7,58.7,0,0,0,14.11-10.92ZM857,591a29.74,29.74,0,0,0-2.76-9.17,28,28,0,0,0-5.82-8,27.56,27.56,0,0,0-8.59-5.53,28.13,28.13,0,0,0-10.77-2,29.41,29.41,0,0,0-20.37,7.56q-8.45,7.57-9.9,17.18Z"/><path d="M1021.53,679.74V668.39a55.37,55.37,0,0,1-18.63,10.91,64.25,64.25,0,0,1-20.67,3.35,71.54,71.54,0,0,1-29.83-6.4A65.58,65.58,0,0,1,929,658.79a72.08,72.08,0,0,1-13.24-22.27A76.15,76.15,0,0,1,911,609.3a77.24,77.24,0,0,1,5.38-29.1,72.59,72.59,0,0,1,14.84-23.29,70.41,70.41,0,0,1,22-15.57,64.73,64.73,0,0,1,27.07-5.67q23.28,0,39.87,13.09V473.09H1058V679.74Zm-1.46-91.68a43.75,43.75,0,0,0-14.84-12.66,42,42,0,0,0-20.08-4.81,34.06,34.06,0,0,0-26.49,11.79,40.32,40.32,0,0,0-7.28,12.37,43,43,0,0,0,.15,30,35,35,0,0,0,7.86,12.08A37.39,37.39,0,0,0,986,647.72a40.66,40.66,0,0,0,19.65-4.8,41.45,41.45,0,0,0,14.4-12.66Z"/><path class="cls-2" d="M1085.56,657.33a25,25,0,0,1,7.27-18.19,24.27,24.27,0,0,1,18.05-7.42,25.34,25.34,0,0,1,25.61,25.07v.54a24.25,24.25,0,0,1-7.42,18,25.65,25.65,0,0,1-43.51-17.08c0-.32,0-.65,0-1Z"/><path d="M1265.32,598l74.22-122h27.65V679.74H1327.9V566.23l-48.9,80h-27.36l-48.9-80V679.74h-39.29V476h27.65Z"/><path d="M1515.05,657.33a66.49,66.49,0,0,1-25.76,18.77,82.09,82.09,0,0,1-32.16,6.55,80.3,80.3,0,0,1-29.25-5.24,67.71,67.71,0,0,1-39-38,77.17,77.17,0,0,1-5.67-30.13,81.68,81.68,0,0,1,4.8-28.08,71.88,71.88,0,0,1,13.84-23.41,65.11,65.11,0,0,1,50-22.12,61.5,61.5,0,0,1,26.78,5.82,67.54,67.54,0,0,1,21.1,15.57,71,71,0,0,1,13.82,22.85,78.39,78.39,0,0,1,5,27.94,58.92,58.92,0,0,1-.87,10.77h-97.83a38.67,38.67,0,0,0,4.08,13.68,35,35,0,0,0,8.29,10.48,38.8,38.8,0,0,0,11.64,6.84,39.78,39.78,0,0,0,14.12,2.47,41.49,41.49,0,0,0,21.39-5.38,58.76,58.76,0,0,0,14.12-10.92ZM1479.85,591a29.74,29.74,0,0,0-2.76-9.17,27.39,27.39,0,0,0-14.41-13.54,28.39,28.39,0,0,0-10.77-2,29.48,29.48,0,0,0-20.38,7.56q-8.46,7.57-9.89,17.18Z"/></svg>