<svg id="Layer_1" data-name="Layer 1" xmlns="http://www.w3.org/2000/svg" viewBox="0 0 1000 1000"><defs><style>.cls-1{fill:#000f9e;}.cls-2,.cls-3{fill:#fff;}.cls-2{fill-rule:evenodd;}</style></defs><title>SecureKey_VerifiedMe_Logo_RGB</title><rect class="cls-1" x="122.35" y="122.35" width="755.3" height="755.3" rx="169.94" ry="169.94"/><path class="cls-2" d="M731.35,335.32c-8-15.74-21.29-24.54-39.17-25.5-16.65-.93-29.65,6.11-40.24,18.49-3,3.57-6.06,7.11-9.08,10.66h0L623,362.22q-43,50.46-86.1,100.92c-12.25,14.35-24.52,28.76-37.14,43.51-12.48-10.74-24.5-21.09-36.68-31.39-15.28-13-29.95-26.62-46-38.33-14.17-10.33-30.59-10.4-46.09-2.49-15.75,8.07-24.49,21.5-25.55,39.3-1,16.58,6.28,29.55,18.66,40.13q53.36,45.71,106.67,91.64c24.32,20.9,51.86,19,72.6-5.29q53.94-63.16,107.74-126.3h0q18-21.06,35.91-42.1c14.21-16.64,28.81-33,41.82-50.48C739.3,367.19,739.29,350.78,731.35,335.32Z"/><path class="cls-3" d="M716.44,439.59c-2.87,3.33-5.73,6.64-8.58,10l-18,21.06-17.94,21-1.76,2.07v108L494,703.51,317.71,601.75V398.25L494,296.49l100,57.71c.22-.26.44-.53.67-.78l7.63-9L622,321.19l2.36-2.77,5.63-6.57L494,233.29,263,366.64V633.36L494,766.71l231-133.35V429.63C722.09,432.94,719.25,436.33,716.44,439.59Z"/></svg>